<svg xmlns="http://www.w3.org/2000/svg" viewBox="0 0 512 512">
  <rect width="512" height="512" rx="96" fill="#0f172a"/>
  <path fill="#38bdf8" d="M213 168c-35 0-63 28-63 63s28 63 63 63c17 0 33-7 45-18l28 28c-22 22-52 34-84 34-67 0-121-54-121-121S146 94 213 94c32 0 62 12 84 34l-28 28c-12-11-28-18-45-18zm86 0c35 0 63 28 63 63s-28 63-63 63c-17 0-33-7-45-18l-28 28c22 22 52 34 84 34 67 0 121-54 121-121S366 94 299 94c-32 0-62 12-84 34l28 28c12-11 28-18 45-18zm-43 63c0-12 10-22 22-22s22 10 22 22-10 22-22 22-22-10-22-22z"/>
</svg>
